<?xml version="1.0" standalone="no"?><!DOCTYPE svg PUBLIC "-//W3C//DTD SVG 1.1//EN" "http://www.w3.org/Graphics/SVG/1.1/DTD/svg11.dtd"><svg t="1652707145133" class="icon" viewBox="0 0 1024 1024" version="1.1" xmlns="http://www.w3.org/2000/svg" p-id="940" xmlns:xlink="http://www.w3.org/1999/xlink" width="200" height="200"><defs><style type="text/css"></style></defs><path d="M857.2928 901.12H158.72a61.44 61.44 0 0 1-57.0368-84.1728l264.192-662.528a61.44 61.44 0 0 1 114.0736 0l64.512 156.5696-27.8528 45.8752-74.6496-187.2896a20.48 20.48 0 0 0-38.0928 0l-264.192 662.528A20.48 20.48 0 0 0 158.72 860.16h698.5728a20.48 20.48 0 0 0 18.6368-29.0816L658.5344 364.7488a20.48 20.48 0 0 0-37.0688 0L469.8112 691.2h-45.4656l159.9488-343.7568a61.44 61.44 0 0 1 111.4112 0l217.2928 466.3296A61.44 61.44 0 0 1 857.2928 901.12z" fill="#1C6EFF" p-id="941"></path><path d="M635.2896 542.72l-73.0112 145.92h146.0224L635.2896 542.72zM272.6912 752.64h468.48v40.96H272.6912z" fill="#34E2B5" p-id="942"></path></svg>